<svg version="1.1" viewBox="0.0 0.0 512.0 512.0" fill="none" stroke="none" stroke-linecap="square" stroke-miterlimit="10" xmlns:xlink="http://www.w3.org/1999/xlink" xmlns="http://www.w3.org/2000/svg"><clipPath id="p.0"><path d="m0 0l512.0 0l0 512.0l-512.0 0l0 -512.0z" clip-rule="nonzero"/></clipPath><g clip-path="url(#p.0)"><path fill="#000000" fill-opacity="0.0" d="m0 0l512.0 0l0 512.0l-512.0 0z" fill-rule="evenodd"/><path fill="#032d69" d="m0 46.32064l0 0c0 -25.582184 20.738457 -46.32064 46.32064 -46.32064l419.3587 0c12.285004 0 24.066833 4.880196 32.75363 13.567001c8.686829 8.686806 13.567017 20.46864 13.567017 32.75364l0 419.3587c0 25.582184 -20.738464 46.32065 -46.32065 46.32065l-419.3587 0c-25.582184 0 -46.32064 -20.738464 -46.32064 -46.32065z" fill-rule="evenodd"/><path fill="#1c4587" d="m65.002625 117.51131l0 0c0 -22.375954 18.13929 -40.515244 40.515244 -40.515244l162.05614 0l0 0c10.7453 0 21.050507 4.2685547 28.64859 11.866638c7.5980835 7.5980835 11.866638 17.903297 11.866638 28.648605l0 188.16637c0 22.375946 -18.139282 40.51523 -40.51523 40.51523l-162.05614 0c-22.375954 0 -40.515244 -18.139282 -40.515244 -40.51523z" fill-rule="evenodd"/><path fill="#1155cc" d="m99.7299 139.71422l0 0c0 -22.375954 18.139297 -40.51525 40.51525 -40.51525l162.05612 0l0 0c10.7453 0 21.050507 4.2685623 28.64859 11.866646c7.5980835 7.598076 11.866638 17.90329 11.866638 28.648605l0 188.16637c0 22.375946 -18.139282 40.51523 -40.51523 40.51523l-162.05612 0c-22.375954 0 -40.51525 -18.139282 -40.51525 -40.51523z" fill-rule="evenodd"/><path fill="#3c78d8" d="m134.45717 161.91711l0 0c0 -22.375946 18.139297 -40.515244 40.515244 -40.515244l162.05612 0l0 0c10.745331 0 21.050537 4.2685623 28.64862 11.866638c7.5980835 7.5980835 11.866638 17.903305 11.866638 28.648605l0 188.16635c0 22.375977 -18.139313 40.51526 -40.51526 40.51526l-162.05612 0c-22.375946 0 -40.515244 -18.139282 -40.515244 -40.51526z" fill-rule="evenodd"/><path fill="#6d9eeb" d="m169.18445 184.12003l0 0c0 -22.375946 18.139282 -40.515244 40.515244 -40.515244l162.0561 0l0 0c10.745331 0 21.050537 4.2685547 28.64862 11.866638c7.5980835 7.5980835 11.866638 17.90329 11.866638 28.648605l0 188.16635c0 22.375946 -18.139282 40.51526 -40.51526 40.51526l-162.0561 0c-22.375961 0 -40.515244 -18.139313 -40.515244 -40.51526z" fill-rule="evenodd"/><path fill="#a4c2f4" d="m203.91171 206.32294l0 0c0 -22.375961 18.139297 -40.51526 40.515244 -40.51526l162.05614 0l0 0c10.7453 0 21.050507 4.26857 28.64859 11.866653c7.5980835 7.5980835 11.866638 17.90329 11.866638 28.648605l0 188.16635c0 22.375946 -18.139282 40.51526 -40.51523 40.51526l-162.05614 0c-22.375946 0 -40.515244 -18.139313 -40.515244 -40.51526z" fill-rule="evenodd"/></g></svg>